<svg xmlns="http://www.w3.org/2000/svg" width="640" height="380" viewBox="0 0 640 380">
  <rect width="640" height="380" fill="#f8f1df" />
  <rect x="24" y="24" width="592" height="332" rx="18" fill="#fffaf0" stroke="#d9c9a9" stroke-width="2" />
  <text x="42" y="58" font-family="Arial, sans-serif" font-size="22" font-weight="700" fill="#6e5026">Dead Bug</text>
  <text x="42" y="84" font-family="Arial, sans-serif" font-size="15" fill="#7d6540">Opposite arm and leg extend while low back stays down.</text>

  <rect x="126" y="250" width="388" height="46" rx="20" fill="#e2d5ba" opacity="0.7" />
  <circle cx="250" cy="226" r="20" fill="#f3d9b5" stroke="#8a6a3c" stroke-width="2" />
  <line x1="268" y1="238" x2="354" y2="248" stroke="#8a6a3c" stroke-width="7" />
  <line x1="298" y1="244" x2="266" y2="184" stroke="#8a6a3c" stroke-width="7" />
  <line x1="334" y1="248" x2="390" y2="198" stroke="#8a6a3c" stroke-width="7" />
  <line x1="354" y1="248" x2="418" y2="248" stroke="#8a6a3c" stroke-width="7" />
  <line x1="354" y1="248" x2="334" y2="306" stroke="#8a6a3c" stroke-width="7" />

  <path d="M266 184 C256 168, 250 150, 252 132" fill="none" stroke="#4f8b42" stroke-width="5" />
  <polygon points="252,126 246,136 258,136" fill="#4f8b42" />
  <path d="M390 198 C410 182, 424 170, 440 162" fill="none" stroke="#4f8b42" stroke-width="5" />
  <polygon points="446,160 436,156 438,168" fill="#4f8b42" />
  <text x="448" y="164" font-family="Arial, sans-serif" font-size="13" fill="#4f8b42">extend opposite side</text>

  <line x1="258" y1="260" x2="360" y2="260" stroke="#b3573a" stroke-width="3" stroke-dasharray="7 6" />
  <text x="190" y="282" font-family="Arial, sans-serif" font-size="13" fill="#b3573a">keep lower back near floor</text>
</svg>
