<svg xmlns="http://www.w3.org/2000/svg" width="640" height="380" viewBox="0 0 640 380">
  <defs>
    <linearGradient id="bg" x1="0" y1="0" x2="1" y2="1">
      <stop offset="0%" stop-color="#fffdf8" />
      <stop offset="100%" stop-color="#f7f0e4" />
    </linearGradient>
    <marker id="arrow" markerWidth="10" markerHeight="10" refX="7" refY="5" orient="auto">
      <path d="M0,0 L10,5 L0,10 Z" fill="#7c9654" />
    </marker>
  </defs>
  <rect width="640" height="380" fill="#f4eee3" />
  <rect x="22" y="22" width="596" height="336" rx="24" fill="url(#bg)" stroke="#e0d6c5" stroke-width="2" />
  <rect x="318" y="54" width="2" height="270" fill="#e7dfd1" />
  <rect x="92" y="266" width="204" height="26" rx="13" fill="#dacbb2" opacity="0.8" />
  <rect x="344" y="266" width="204" height="26" rx="13" fill="#dacbb2" opacity="0.8" />

  <circle cx="66" cy="68" r="18" fill="#8f7a5d" />
  <text x="60" y="74" font-family="Arial, sans-serif" font-size="16" font-weight="700" fill="#fffdf8">1</text>
  <circle cx="386" cy="68" r="18" fill="#8f7a5d" />
  <text x="380" y="74" font-family="Arial, sans-serif" font-size="16" font-weight="700" fill="#fffdf8">2</text>

  <g>
    <circle cx="146" cy="240" r="15" fill="#f7d9cd" stroke="#6f6562" stroke-width="2.5" />
    <circle cx="146" cy="219" r="9" fill="#8b6a55" />
    <path d="M133 234 C137 224 156 224 160 234" fill="#8b6a55" />
    <path d="M162 248 Q200 244 232 250" fill="none" stroke="#6f6562" stroke-width="8" stroke-linecap="round" />
    <path d="M188 246 L188 188" fill="none" stroke="#6f6562" stroke-width="8" stroke-linecap="round" />
    <path d="M220 250 L260 220" fill="none" stroke="#6f6562" stroke-width="8" stroke-linecap="round" />
    <path d="M230 250 L276 250" fill="none" stroke="#6f6562" stroke-width="8" stroke-linecap="round" />
    <path d="M230 250 L208 300" fill="none" stroke="#6f6562" stroke-width="8" stroke-linecap="round" />
    <path d="M170 244 Q196 242 216 244" fill="none" stroke="#f0d84f" stroke-width="14" stroke-linecap="round" />
    <path d="M196 247 Q216 248 228 254" fill="none" stroke="#f2a2a2" stroke-width="14" stroke-linecap="round" />
  </g>

  <g>
    <circle cx="398" cy="240" r="15" fill="#f7d9cd" stroke="#6f6562" stroke-width="2.5" />
    <circle cx="398" cy="219" r="9" fill="#8b6a55" />
    <path d="M385 234 C389 224 408 224 412 234" fill="#8b6a55" />
    <path d="M414 248 Q452 244 484 250" fill="none" stroke="#6f6562" stroke-width="8" stroke-linecap="round" />
    <path d="M448 250 L448 190" fill="none" stroke="#6f6562" stroke-width="8" stroke-linecap="round" />
    <path d="M474 250 L532 206" fill="none" stroke="#6f6562" stroke-width="8" stroke-linecap="round" />
    <path d="M484 250 L548 250" fill="none" stroke="#6f6562" stroke-width="8" stroke-linecap="round" />
    <path d="M484 250 L462 300" fill="none" stroke="#6f6562" stroke-width="8" stroke-linecap="round" />
    <path d="M422 244 Q448 242 472 244" fill="none" stroke="#f0d84f" stroke-width="14" stroke-linecap="round" />
    <path d="M450 247 Q470 248 484 254" fill="none" stroke="#f2a2a2" stroke-width="14" stroke-linecap="round" />
  </g>

  <path d="M462 192 C452 172 448 158 448 142" fill="none" stroke="#7c9654" stroke-width="6" stroke-linecap="round" marker-end="url(#arrow)" />
  <path d="M530 206 C546 196 560 188 576 182" fill="none" stroke="#7c9654" stroke-width="6" stroke-linecap="round" marker-end="url(#arrow)" />
  <path d="M186 268 Q212 260 242 268" fill="none" stroke="#de938f" stroke-width="4" stroke-dasharray="6 6" />
  <path d="M442 268 Q468 260 498 268" fill="none" stroke="#de938f" stroke-width="4" stroke-dasharray="6 6" />
</svg>
