<svg xmlns="http://www.w3.org/2000/svg" width="640" height="380" viewBox="0 0 640 380">
  <defs>
    <linearGradient id="bg" x1="0" y1="0" x2="1" y2="1">
      <stop offset="0%" stop-color="#fffaf0" />
      <stop offset="100%" stop-color="#f6ecd9" />
    </linearGradient>
    <filter id="shadow" x="-20%" y="-20%" width="140%" height="140%">
      <feDropShadow dx="0" dy="8" stdDeviation="10" flood-color="#8a6a3c" flood-opacity="0.12" />
    </filter>
    <marker id="arrow" markerWidth="10" markerHeight="10" refX="7" refY="5" orient="auto">
      <path d="M0,0 L10,5 L0,10 Z" fill="#7d9154" />
    </marker>
  </defs>

  <rect width="640" height="380" fill="#f3ead7" />
  <rect x="22" y="22" width="596" height="336" rx="24" fill="url(#bg)" stroke="#dcccb0" stroke-width="2" />
  <rect x="0" y="306" width="640" height="74" fill="#efe3cb" />

  <g opacity="0.92">
    <rect x="158" y="80" width="18" height="238" rx="8" fill="#c0a174" />
    <rect x="464" y="80" width="18" height="238" rx="8" fill="#c0a174" />
    <rect x="158" y="80" width="324" height="18" rx="8" fill="#c0a174" />
  </g>

  <g filter="url(#shadow)">
    <circle cx="320" cy="133" r="25" fill="#f0cfad" stroke="#8a6a3c" stroke-width="3" />
    <path d="M286 166 Q320 148 354 166 L346 232 Q320 246 294 232 Z" fill="#9e8575" stroke="#7f6450" stroke-width="3" />
    <ellipse cx="320" cy="186" rx="40" ry="33" fill="#dca596" opacity="0.26" />
    <path d="M292 175 Q250 180 240 195 Q236 202 238 214" fill="none" stroke="#7f6450" stroke-width="14" stroke-linecap="round" />
    <path d="M348 175 Q390 180 400 195 Q404 202 402 214" fill="none" stroke="#7f6450" stroke-width="14" stroke-linecap="round" />
    <path d="M239 210 L239 160" fill="none" stroke="#7f6450" stroke-width="14" stroke-linecap="round" />
    <path d="M401 210 L401 160" fill="none" stroke="#7f6450" stroke-width="14" stroke-linecap="round" />
    <path d="M305 232 L286 305" fill="none" stroke="#7f6450" stroke-width="14" stroke-linecap="round" />
    <path d="M335 232 L360 292" fill="none" stroke="#7f6450" stroke-width="14" stroke-linecap="round" />
    <path d="M285 305 L256 305" fill="none" stroke="#7f6450" stroke-width="14" stroke-linecap="round" />
    <path d="M360 292 L388 292" fill="none" stroke="#7f6450" stroke-width="14" stroke-linecap="round" />
  </g>

  <path d="M218 284 C246 270 266 266 286 266" fill="none" stroke="#7d9154" stroke-width="6" stroke-linecap="round" marker-end="url(#arrow)" />
  <path d="M422 276 C402 270 384 268 360 270" fill="none" stroke="#7d9154" stroke-width="6" stroke-linecap="round" marker-end="url(#arrow)" />

  <circle cx="320" cy="182" r="54" fill="none" stroke="#d78b6e" stroke-width="3" stroke-dasharray="7 7" opacity="0.9" />
  <circle cx="320" cy="182" r="8" fill="#d78b6e" opacity="0.8" />
</svg>
